Coordinates
version=1
nRows=21
nColumns=22
inDegrees=yes

Units are S.I. units (second, meters, Newtons, ...)
If the header above contains a line with 'inDegrees', this indicates whether rotational values are in degrees (yes) or radians (no).

endheader
time	pelvis_tilt	pelvis_list	pelvis_rotation	pelvis_tx	pelvis_ty	pelvis_tz	hip_flexion_r	hip_adduction_r	hip_rotation_r	knee_angle_r	ankle_angle_r	subtalar_angle_r	hip_flexion_l	hip_adduction_l	hip_rotation_l	knee_angle_l	ankle_angle_l	subtalar_angle_l	lumbar_extension	lumbar_bending	lumbar_rotation
      5.05000000	     -5.57015043	    -10.68515842	   -446.79682528	      0.83381638	      0.92003179	     -0.00700345	    -14.94612213	     13.55821724	      6.30893385	    -20.26762489	     17.21763153	     -7.19834670	     17.51950592	     -8.58879681	     -5.42539298	    -17.78584202	      7.78354943	      0.68386677	    -15.89282833	      7.56572391	      0.72401851
      5.06000000	     -5.55322827	    -10.55007411	   -447.18355426	      0.83610682	      0.91954493	      0.00081080	    -15.08783943	     13.29027640	      6.51793123	    -20.82876845	     17.13273038	     -6.92056314	     17.52793435	     -8.33348302	     -4.99817778	    -18.53786265	      7.25065593	     -0.42725265	    -15.62446736	      7.46295645	      0.59338655
      5.07000000	     -5.50127526	    -10.39896640	   -447.52135695	      0.83844158	      0.91922216	      0.00867810	    -15.19680385	     12.98911102	      6.71218572	    -21.39897585	     16.93755188	     -6.57903723	     17.57235838	     -8.05571841	     -4.62809314	    -19.34577737	      6.68263326	     -1.63405515	    -15.32544194	      7.32998674	      0.41582673
      5.08000000	     -5.42468693	    -10.24222204	   -447.81032843	      0.84081174	      0.91909043	      0.01660346	    -15.28743549	     12.66764985	      6.89008780	    -21.96796570	     16.62029180	     -6.16904864	     17.64573636	     -7.77186626	     -4.34191625	    -20.19338304	      6.13991035	     -2.87898250	    -15.00469579	      7.17609172	      0.20225738
      5.09000000	     -5.32257542	    -10.09029109	   -448.05206703	      0.84320381	      0.91916688	      0.02459561	    -15.36723375	     12.32940514	      7.05186092	    -22.54286287	     16.18021557	     -5.68441343	     17.72237644	     -7.48387064	     -4.14970142	    -21.05205734	      5.71239526	     -4.07851573	    -14.67375220	      6.99910758	     -0.03888616
      5.10000000	     -5.19332608	     -9.94550728	   -448.25059089	      0.84560763	      0.91945535	      0.03266887	    -15.43349307	     11.97404691	      7.19086099	    -23.13503779	     15.61486717	     -5.12806146	     17.77749610	     -7.18989812	     -4.04799262	    -21.88938452	      5.44404575	     -5.16931119	    -14.33253710	      6.79624004	     -0.31186449
      5.11000000	     -5.03407158	     -9.81867299	   -448.41364537	      0.84800805	      0.91997190	      0.04082267	    -15.49052973	     11.59732716	      7.28742596	    -23.75350855	     14.90971997	     -4.49357246	     17.77827441	     -6.88795132	     -4.03884702	    -22.68043059	      5.36335278	     -6.12114882	    -13.99373355	      6.56093914	     -0.61333225
      5.12000000	     -4.84845021	     -9.70216432	   -448.53906586	      0.85040559	      0.92069547	      0.04904458	    -15.52403783	     11.20684187	      7.33337839	    -24.40678476	     14.06140226	     -3.79957302	     17.71069286	     -6.57038168	     -4.07055374	    -23.38430447	      5.46071269	     -6.93715220	    -13.64896746	      6.29664507	     -0.94657409
      5.13000000	     -4.63488622	     -9.60550928	   -448.64568851	      0.85280012	      0.92161777	      0.05730575	    -15.52125520	     10.79042983	      7.29211612	    -25.13325262	     13.09454421	     -2.99555063	     17.54457179	     -6.23534504	     -4.15558486	    -23.97511538	      5.75761706	     -7.65434329	    -13.31798139	      6.00410170	     -1.28934286
      5.14000000	     -4.40383545	     -9.51108450	   -448.71624468	      0.85521537	      0.92270458	      0.06557872	    -15.46977986	     10.36508883	      7.16423296	    -25.90881923	     11.96555218	     -2.16809822	     17.29942115	     -5.88001646	     -4.24697253	    -24.43618721	      6.14604581	     -8.26457784	    -12.97810983	      5.69645417	     -1.66916490
      5.15000000	     -4.15961045	     -9.42017055	   -448.77025610	      0.85763170	      0.92392993	      0.07381871	    -15.35158684	      9.92626912	      6.94077301	    -26.76567914	     10.69380893	     -1.29744044	     16.96494767	     -5.51005447	     -4.35944590	    -24.74918064	      6.60094780	     -8.78542856	    -12.63998857	      5.37687067	     -2.06383846
      5.16000000	     -3.91195502	     -9.32945320	   -448.81073829	      0.86005136	      0.92524969	      0.08198337	    -15.15355740	      9.47964793	      6.61510585	    -27.71500481	      9.29193663	     -0.41302611	     16.55426735	     -5.13269778	     -4.49054935	    -24.92042386	      7.08544321	     -9.22184610	    -12.30647124	      5.05786546	     -2.47087546
      5.17000000	     -3.66761591	     -9.23648593	   -448.85167245	      0.86244731	      0.92661621	      0.09003666	    -14.86670187	      9.02554898	      6.19524190	    -28.76670350	      7.77821444	      0.47158472	     16.08077792	     -4.75729833	     -4.65037869	    -24.96340768	      7.57637871	     -9.58316077	    -11.98144148	      4.74486251	     -2.87789323
      5.18000000	     -3.43241543	     -9.13816261	   -448.90903686	      0.86478598	      0.92798240	      0.09794508	    -14.48543593	      8.56622542	      5.70878605	    -29.92476829	      6.17687424	      1.34009336	     15.56002304	     -4.39302386	     -4.85036513	    -24.89555517	      8.05751069	     -9.88097075	    -11.66733543	      4.44247592	     -3.27355693
      5.19000000	     -3.21352089	     -9.04526148	   -448.98313006	      0.86706891	      0.92930357	      0.10567702	    -14.01866163	      8.10273883	      5.14133652	    -31.19401713	      4.52421051	      2.15040932	     15.00884186	     -4.04881775	     -5.09126915	    -24.76243431	      8.52911021	    -10.12360756	    -11.38281281	      4.16130763	     -3.66110897
      5.20000000	     -3.01079228	     -8.95961379	   -449.08477298	      0.86927760	      0.93054388	      0.11320054	    -13.47029085	      7.63176648	      4.52278888	    -32.57387577	      2.85334366	      2.88575521	     14.44121493	     -3.72576050	     -5.37209281	    -24.58958744	      8.98852646	    -10.32327783	    -11.13590802	      3.90024038	     -4.02545547
      5.21000000	     -2.82293798	     -8.88729105	   -449.22450252	      0.87139233	      0.93167415	      0.12050090	    -12.84959194	      7.14960007	      3.88288753	    -34.06560465	      1.21655026	      3.55368520	     13.86740956	     -3.42574582	     -5.69253862	    -24.40892816	      9.44816107	    -10.49118494	    -10.93820410	      3.65641077	     -4.35465043
      5.22000000	     -2.64787782	     -8.83382369	   -449.39423264	      0.87344309	      0.93268295	      0.12755307	    -12.16576989	      6.65161591	      3.21996651	    -35.66396647	     -0.35276597	      4.11751253	     13.29719431	     -3.14376521	     -6.04292295	    -24.24083859	      9.88016860	    -10.62153230	    -10.79862855	      3.43352489	     -4.64959521
      5.23000000	     -2.46866601	     -8.79913574	   -449.59619227	      0.87540389	      0.93355507	      0.13435878	    -11.42765469	      6.13842300	      2.61621633	    -37.35783223	     -1.78796165	      4.71881202	     12.73577418	     -2.86123999	     -6.40901540	    -24.10117894	     10.36992034	    -10.74446487	    -10.71585463	      3.20533903	     -4.92398616
      5.24000000	     -2.28755578	     -8.78921882	   -449.80322916	      0.87733502	      0.93430010	      0.14089190	    -10.64360056	      5.60316534	      2.00093247	    -39.13249206	     -3.07103932	      5.25286948	     12.19581149	     -2.57905467	     -6.78704598	    -24.00929657	     10.80503336	    -10.83201818	    -10.69902688	      2.98406641	     -5.19745556
      5.25000000	     -2.10466827	     -8.79953225	   -450.01708184	      0.87921777	      0.93492894	      0.14714882	     -9.81758452	      5.05917950	      1.42267343	    -40.96253315	     -4.15255395	      5.84517265	     11.67173103	     -2.29259611	     -7.14368361	    -23.94692898	     11.24736272	    -10.90943842	    -10.73976950	      2.76453996	     -5.44647080
